<?xml version="1.0" encoding="UTF-8"?>
<!DOCTYPE svg PUBLIC "-//W3C//DTD SVG 1.1//EN" "http://www.w3.org/Graphics/SVG/1.1/DTD/svg11.dtd">
<svg xmlns="http://www.w3.org/2000/svg" version="1.1" width="640px" height="640px" style="shape-rendering:geometricPrecision; text-rendering:geometricPrecision; image-rendering:optimizeQuality; fill-rule:evenodd; clip-rule:evenodd" xmlns:xlink="http://www.w3.org/1999/xlink">
<g><path style="opacity:1" fill="#c1974e" d="M 400.5,79.5 C 405.915,80.4132 409.248,83.5799 410.5,89C 408.131,97.018 403.131,99.3513 395.5,96C 389.52,88.1355 391.187,82.6355 400.5,79.5 Z"/></g>
<g><path style="opacity:1" fill="#ce9b3e" d="M 397.5,83.5 C 400.248,85.0438 403.248,85.7105 406.5,85.5C 406.74,88.5788 406.407,91.5788 405.5,94.5C 402.572,95.4841 399.572,95.8174 396.5,95.5C 396.603,92.7814 396.269,90.1147 395.5,87.5C 396.225,86.1331 396.892,84.7997 397.5,83.5 Z"/></g>
<g><path style="opacity:1" fill="#e4cca0" d="M 505.5,199.5 C 504.993,200.859 503.993,201.859 502.5,202.5C 504.045,203.452 505.712,203.785 507.5,203.5C 507.433,204.959 507.766,206.292 508.5,207.5C 506.833,206.833 505.167,206.167 503.5,205.5C 495.782,200.47 487.782,195.803 479.5,191.5C 467.535,184.515 455.535,177.515 443.5,170.5C 442.609,169.89 441.609,169.557 440.5,169.5C 438.66,167.331 436.326,165.998 433.5,165.5C 431.802,163.133 429.469,161.466 426.5,160.5C 426.167,160.5 425.833,160.5 425.5,160.5C 422.021,157.372 418.021,155.039 413.5,153.5C 405.785,148.475 397.785,143.808 389.5,139.5C 383.633,135.065 377.3,131.399 370.5,128.5C 353.395,117.915 335.895,107.915 318,98.5C 310.044,102.222 302.544,106.555 295.5,111.5C 289.332,114.08 283.665,117.414 278.5,121.5C 275.515,122.326 272.849,123.659 270.5,125.5C 260.17,130.996 250.17,136.996 240.5,143.5C 231.902,147.8 223.569,152.467 215.5,157.5C 201.495,165.508 187.495,173.508 173.5,181.5C 168.736,183.979 164.069,186.645 159.5,189.5C 152.09,193.843 144.756,198.177 137.5,202.5C 134.507,203.719 131.84,205.386 129.5,207.5C 128.833,207.5 128.167,207.5 127.5,207.5C 127.209,206.351 126.376,205.684 125,205.5C 123.2,206.378 121.367,207.045 119.5,207.5C 119.369,206.624 119.702,205.957 120.5,205.5C 186.35,167.319 252.35,129.319 318.5,91.5C 380.797,127.807 443.13,163.807 505.5,199.5 Z"/></g>
<g><path style="opacity:1" fill="#e9c992" d="M 472.5,119.5 C 470.535,118.871 468.535,118.204 466.5,117.5C 464.865,117.878 463.365,118.544 462,119.5C 457.694,113.863 454.194,114.196 451.5,120.5C 452.5,121.5 453.5,122.5 454.5,123.5C 457.007,124.63 460.007,125.297 463.5,125.5C 463.5,128.167 463.5,130.833 463.5,133.5C 466.546,133.183 468.213,134.516 468.5,137.5C 466.914,136.852 465.247,136.352 463.5,136C 453.199,129.115 442.532,122.781 431.5,117C 425.556,108.64 427.556,102.806 437.5,99.5C 449.77,105.445 461.436,112.111 472.5,119.5 Z"/></g>
<g><path style="opacity:1" fill="#3f3424" d="M 295.5,111.5 C 295.278,113.607 294.278,115.274 292.5,116.5C 287.748,118.069 283.082,119.736 278.5,121.5C 283.665,117.414 289.332,114.08 295.5,111.5 Z"/></g>
<g><path style="opacity:1" fill="#e4be82" d="M 472.5,119.5 C 477.67,121.918 482.67,124.584 487.5,127.5C 484.86,127.447 482.36,126.78 480,125.5C 478.129,125.709 476.962,126.709 476.5,128.5C 477.325,129.386 478.325,129.719 479.5,129.5C 479.5,131.5 479.5,133.5 479.5,135.5C 477.535,134.871 475.535,134.204 473.5,133.5C 472.5,133.833 471.5,134.167 470.5,134.5C 471.902,135.842 471.569,136.676 469.5,137C 473.453,138.46 476.786,140.626 479.5,143.5C 475.388,142.278 471.721,140.278 468.5,137.5C 468.213,134.516 466.546,133.183 463.5,133.5C 463.5,130.833 463.5,128.167 463.5,125.5C 460.007,125.297 457.007,124.63 454.5,123.5C 453.5,122.5 452.5,121.5 451.5,120.5C 454.194,114.196 457.694,113.863 462,119.5C 463.365,118.544 464.865,117.878 466.5,117.5C 468.535,118.204 470.535,118.871 472.5,119.5 Z"/></g>
<g><path style="opacity:1" fill="#39311d" d="M 370.5,128.5 C 377.3,131.399 383.633,135.065 389.5,139.5C 386.813,139.664 384.146,139.497 381.5,139C 377.759,135.484 374.092,131.984 370.5,128.5 Z"/></g>
<g><path style="opacity:1" fill="#d1a252" d="M 166.5,143.5 C 163.365,143.807 160.698,145.14 158.5,147.5C 155.336,145.993 154.336,143.66 155.5,140.5C 153.06,138.671 151.393,136.337 150.5,133.5C 151.789,132.363 152.789,131.03 153.5,129.5C 157.102,127.115 160.935,125.115 165,123.5C 173.203,124.996 176.536,129.663 175,137.5C 173.149,140.846 170.316,142.846 166.5,143.5 Z"/></g>
<g><path style="opacity:1" fill="#dcb471" d="M 487.5,127.5 C 493.446,129.967 498.78,133.301 503.5,137.5C 501.042,137.227 499.375,138.227 498.5,140.5C 494.833,141.167 491.167,141.833 487.5,142.5C 486.833,143.167 486.167,143.833 485.5,144.5C 487.69,146.724 489.69,149.058 491.5,151.5C 487.143,149.103 483.143,146.436 479.5,143.5C 476.786,140.626 473.453,138.46 469.5,137C 471.569,136.676 471.902,135.842 470.5,134.5C 471.5,134.167 472.5,133.833 473.5,133.5C 475.535,134.204 477.535,134.871 479.5,135.5C 479.5,133.5 479.5,131.5 479.5,129.5C 478.325,129.719 477.325,129.386 476.5,128.5C 476.962,126.709 478.129,125.709 480,125.5C 482.36,126.78 484.86,127.447 487.5,127.5 Z"/></g>
<g><path style="opacity:1" fill="#2d2b21" d="M 270.5,125.5 C 271.139,131.248 271.473,137.248 271.5,143.5C 269.396,143.799 267.396,143.466 265.5,142.5C 266.833,140.5 268.167,138.5 269.5,136.5C 268.758,135.713 267.925,135.047 267,134.5C 262.267,136.059 257.434,137.392 252.5,138.5C 249.646,142.864 245.646,144.531 240.5,143.5C 250.17,136.996 260.17,130.996 270.5,125.5 Z"/></g>
<g><path style="opacity:1" fill="#d9ae67" d="M 150.5,133.5 C 151.393,136.337 153.06,138.671 155.5,140.5C 154.336,143.66 155.336,145.993 158.5,147.5C 160.698,145.14 163.365,143.807 166.5,143.5C 166.047,144.458 165.381,145.292 164.5,146C 161.936,147.396 159.269,148.563 156.5,149.5C 153.564,150.406 150.564,151.072 147.5,151.5C 147.833,148.5 146.5,147.167 143.5,147.5C 144.011,143.97 143.344,140.804 141.5,138C 143.577,137.808 145.577,137.308 147.5,136.5C 147.879,134.787 148.879,133.787 150.5,133.5 Z"/></g>
<g><path style="opacity:1" fill="#302e1c" d="M 389.5,139.5 C 397.785,143.808 405.785,148.475 413.5,153.5C 408.414,152.305 403.414,150.805 398.5,149C 398.833,148.667 399.167,148.333 399.5,148C 396.978,147.39 394.978,146.057 393.5,144C 392.167,143.667 390.833,143.333 389.5,143C 389.201,141.927 389.201,140.76 389.5,139.5 Z"/></g>
<g><path style="opacity:1" fill="#d7ac63" d="M 503.5,137.5 C 506.16,138.781 508.827,140.115 511.5,141.5C 503.5,143.5 503.5,145.5 511.5,147.5C 511.5,148.833 511.5,150.167 511.5,151.5C 510.127,151.343 508.793,151.51 507.5,152C 510.278,153.392 513.278,153.892 516.5,153.5C 516.5,154.833 516.5,156.167 516.5,157.5C 514.833,157.5 513.167,157.5 511.5,157.5C 511.5,158.833 511.5,160.167 511.5,161.5C 516.568,162.656 520.568,165.323 523.5,169.5C 513.075,163.076 502.408,157.076 491.5,151.5C 489.69,149.058 487.69,146.724 485.5,144.5C 486.167,143.833 486.833,143.167 487.5,142.5C 491.167,141.833 494.833,141.167 498.5,140.5C 499.375,138.227 501.042,137.227 503.5,137.5 Z"/></g>
<g><path style="opacity:1" fill="#e2bd7f" d="M 153.5,129.5 C 152.789,131.03 151.789,132.363 150.5,133.5C 148.879,133.787 147.879,134.787 147.5,136.5C 145.577,137.308 143.577,137.808 141.5,138C 143.344,140.804 144.011,143.97 143.5,147.5C 146.5,147.167 147.833,148.5 147.5,151.5C 150.564,151.072 153.564,150.406 156.5,149.5C 151.006,153.082 145.339,156.415 139.5,159.5C 136.603,159.788 133.77,160.455 131,161.5C 129.833,161.167 128.667,160.833 127.5,160.5C 132.329,158.837 132.329,156.67 127.5,154C 126.552,153.517 125.552,153.351 124.5,153.5C 124.129,147.86 126.463,146.193 131.5,148.5C 131.468,145.924 132.135,143.591 133.5,141.5C 139.882,137.137 146.549,133.137 153.5,129.5 Z"/></g>
<g><path style="opacity:1" fill="#cfa661" d="M 511.5,141.5 C 518.53,145.504 525.53,149.504 532.5,153.5C 525.45,151.249 518.45,148.915 511.5,146.5C 511.5,144.833 511.5,143.167 511.5,141.5 Z"/></g>
<g><path style="opacity:1" fill="#e8c993" d="M 133.5,141.5 C 132.135,143.591 131.468,145.924 131.5,148.5C 126.463,146.193 124.129,147.86 124.5,153.5C 125.552,153.351 126.552,153.517 127.5,154C 132.329,156.67 132.329,158.837 127.5,160.5C 128.667,160.833 129.833,161.167 131,161.5C 133.77,160.455 136.603,159.788 139.5,159.5C 135.002,162.919 130.002,165.585 124.5,167.5C 115.577,164.331 113.41,158.665 118,150.5C 123.054,147.273 128.221,144.273 133.5,141.5 Z"/></g>
<g><path style="opacity:0.008" fill="#fdfefd" d="M 32.5,156.5 C 33.8333,157.167 33.8333,157.167 32.5,156.5 Z"/></g>
<g><path style="opacity:1" fill="#d0a04b" d="M 511.5,141.5 C 511.5,143.167 511.5,144.833 511.5,146.5C 518.45,148.915 525.45,151.249 532.5,153.5C 536.701,155.527 540.534,158.194 544,161.5C 546.091,164.413 545.924,167.08 543.5,169.5C 541.712,169.215 540.045,169.548 538.5,170.5C 536.5,174.5 534.5,174.5 532.5,170.5C 529.572,169.516 526.572,169.183 523.5,169.5C 520.568,165.323 516.568,162.656 511.5,161.5C 511.5,160.167 511.5,158.833 511.5,157.5C 513.167,157.5 514.833,157.5 516.5,157.5C 516.5,156.167 516.5,154.833 516.5,153.5C 513.278,153.892 510.278,153.392 507.5,152C 508.793,151.51 510.127,151.343 511.5,151.5C 511.5,150.167 511.5,148.833 511.5,147.5C 503.5,145.5 503.5,143.5 511.5,141.5 Z"/></g>
<g><path style="opacity:1" fill="#2b281b" d="M 425.5,160.5 C 425.833,160.5 426.167,160.5 426.5,160.5C 427.502,162.011 428.169,163.678 428.5,165.5C 359.492,164.837 290.825,165.503 222.5,167.5C 221.504,167.414 220.671,167.748 220,168.5C 216.525,175.01 216.692,181.343 220.5,187.5C 217.95,187.439 216.45,186.106 216,183.5C 214.988,177.65 215.488,171.984 217.5,166.5C 218.833,165.833 220.167,165.167 221.5,164.5C 289.163,163.5 356.83,163.167 424.5,163.5C 424.263,162.209 424.596,161.209 425.5,160.5 Z"/></g>
<g><path style="opacity:1" fill="#514327" d="M 426.5,160.5 C 429.469,161.466 431.802,163.133 433.5,165.5C 431.876,165.64 430.71,164.973 430,163.5C 429.51,164.793 429.343,166.127 429.5,167.5C 360.736,166.169 292.069,166.169 223.5,167.5C 223.167,167.5 222.833,167.5 222.5,167.5C 290.825,165.503 359.492,164.837 428.5,165.5C 428.169,163.678 427.502,162.011 426.5,160.5 Z"/></g>
<g><path style="opacity:1" fill="#decfb1" d="M 223.5,167.5 C 292.069,166.169 360.736,166.169 429.5,167.5C 434.669,171.219 436.336,176.219 434.5,182.5C 433.712,183.77 432.712,184.77 431.5,185.5C 431.855,183.11 432.522,180.777 433.5,178.5C 433.36,176.97 432.693,175.97 431.5,175.5C 432.38,173.611 432.38,171.611 431.5,169.5C 362.229,167.54 292.895,166.874 223.5,167.5 Z"/></g>
<g><path style="opacity:1" fill="#282826" d="M 370.5,128.5 C 374.092,131.984 377.759,135.484 381.5,139C 384.146,139.497 386.813,139.664 389.5,139.5C 389.201,140.76 389.201,141.927 389.5,143C 390.833,143.333 392.167,143.667 393.5,144C 394.978,146.057 396.978,147.39 399.5,148C 399.167,148.333 398.833,148.667 398.5,149C 403.414,150.805 408.414,152.305 413.5,153.5C 418.021,155.039 422.021,157.372 425.5,160.5C 424.596,161.209 424.263,162.209 424.5,163.5C 356.83,163.167 289.163,163.5 221.5,164.5C 220.167,165.167 218.833,165.833 217.5,166.5C 215.488,171.984 214.988,177.65 216,183.5C 216.45,186.106 217.95,187.439 220.5,187.5C 221.5,187.5 222.5,187.5 223.5,187.5C 223.5,187.833 223.5,188.167 223.5,188.5C 223.5,189.5 223.5,190.5 223.5,191.5C 267.5,191.5 311.5,191.5 355.5,191.5C 355.5,207.5 355.5,223.5 355.5,239.5C 354.167,239.5 352.833,239.5 351.5,239.5C 351.5,241.5 351.5,243.5 351.5,245.5C 353.958,245.227 355.625,246.227 356.5,248.5C 288.394,248.854 220.394,249.854 152.5,251.5C 152.5,252.833 152.5,254.167 152.5,255.5C 148.5,261.833 148.5,268.167 152.5,274.5C 153.09,276.097 154.09,277.431 155.5,278.5C 182.158,279.5 208.825,279.833 235.5,279.5C 235.759,319.51 235.426,359.51 234.5,399.5C 232.911,402.092 231.245,402.092 229.5,399.5C 228.423,394.436 228.756,389.436 230.5,384.5C 229.507,352.21 229.174,319.877 229.5,287.5C 227.5,287.5 225.5,287.5 223.5,287.5C 222.876,320.57 223.543,353.57 225.5,386.5C 223.927,390.698 223.26,395.031 223.5,399.5C 224.5,399.5 225.5,399.5 226.5,399.5C 226.884,403.747 227.551,407.914 228.5,412C 226.609,412.309 225.275,411.475 224.5,409.5C 223.132,412.068 223.466,414.401 225.5,416.5C 223.735,418.875 222.568,421.542 222,424.5C 220.16,423.167 219.66,423.334 220.5,425C 218.543,426.746 217.543,428.912 217.5,431.5C 211.971,438.263 205.305,443.597 197.5,447.5C 196.5,447.5 195.5,447.5 194.5,447.5C 194.5,452.833 194.5,458.167 194.5,463.5C 196.958,463.227 198.625,464.227 199.5,466.5C 202.086,467.48 204.753,467.813 207.5,467.5C 207.5,468.833 207.5,470.167 207.5,471.5C 203.952,472.702 200.285,473.369 196.5,473.5C 194.167,473.5 191.833,473.5 189.5,473.5C 184.491,471.332 179.824,468.665 175.5,465.5C 173.661,463.404 171.995,461.071 170.5,458.5C 167.453,456.756 164.453,455.089 161.5,453.5C 161.5,452.167 161.5,450.833 161.5,449.5C 162.675,449.719 163.675,449.386 164.5,448.5C 162.955,447.548 161.288,447.215 159.5,447.5C 159.5,448.833 159.5,450.167 159.5,451.5C 154.249,451.037 149.249,449.704 144.5,447.5C 144.167,447.5 143.833,447.5 143.5,447.5C 143.278,445.393 142.278,443.726 140.5,442.5C 136.562,440.233 132.896,437.566 129.5,434.5C 128.359,433.575 128.359,432.741 129.5,432C 128.258,431.689 127.258,432.189 126.5,433.5C 125.333,359.502 125.167,285.502 126,211.5C 127.102,210.051 128.269,208.718 129.5,207.5C 131.84,205.386 134.507,203.719 137.5,202.5C 138.496,202.414 139.329,202.748 140,203.5C 142.776,202.01 145.61,200.51 148.5,199C 148.167,198.667 147.833,198.333 147.5,198C 153.896,198.425 157.896,195.591 159.5,189.5C 164.069,186.645 168.736,183.979 173.5,181.5C 179.668,179.755 185.668,177.422 191.5,174.5C 197.088,171.409 202.255,167.743 207,163.5C 208.164,163.165 209.497,163.165 211,163.5C 211.859,161.103 213.359,159.103 215.5,157.5C 223.569,152.467 231.902,147.8 240.5,143.5C 245.646,144.531 249.646,142.864 252.5,138.5C 257.434,137.392 262.267,136.059 267,134.5C 267.925,135.047 268.758,135.713 269.5,136.5C 268.167,138.5 266.833,140.5 265.5,142.5C 267.396,143.466 269.396,143.799 271.5,143.5C 271.473,137.248 271.139,131.248 270.5,125.5C 272.849,123.659 275.515,122.326 278.5,121.5C 283.082,119.736 287.748,118.069 292.5,116.5C 294.278,115.274 295.278,113.607 295.5,111.5C 302.544,106.555 310.044,102.222 318,98.5C 335.895,107.915 353.395,117.915 370.5,128.5 Z"/></g>
<g><path style="opacity:1" fill="#ecd0a1" d="M 222.5,167.5 C 222.833,167.5 223.167,167.5 223.5,167.5C 292.895,166.874 362.229,167.54 431.5,169.5C 432.38,171.611 432.38,173.611 431.5,175.5C 427.955,175.535 424.289,175.202 420.5,174.5C 422.078,173.702 423.744,173.202 425.5,173C 424.663,171.989 424.33,170.822 424.5,169.5C 357.163,169.167 289.83,169.5 222.5,170.5C 220.521,173.91 220.021,177.577 221,181.5C 221.645,182.646 222.478,183.646 223.5,184.5C 266.828,185.5 310.162,185.833 353.5,185.5C 353.167,186.167 352.833,186.833 352.5,187.5C 311.833,187.5 271.167,187.5 230.5,187.5C 228.167,187.5 225.833,187.5 223.5,187.5C 222.5,187.5 221.5,187.5 220.5,187.5C 216.692,181.343 216.525,175.01 220,168.5C 220.671,167.748 221.504,167.414 222.5,167.5 Z"/></g>
<g><path style="opacity:1" fill="#f1d098" d="M 431.5,175.5 C 432.693,175.97 433.36,176.97 433.5,178.5C 432.522,180.777 431.855,183.11 431.5,185.5C 430.167,185.5 428.833,185.5 427.5,185.5C 412.833,185.5 398.167,185.5 383.5,185.5C 383.5,184.167 383.5,182.833 383.5,181.5C 394.167,181.5 404.833,181.5 415.5,181.5C 415.5,180.167 415.5,178.833 415.5,177.5C 372.854,177.165 372.854,176.165 415.5,174.5C 351.503,173.5 287.503,173.167 223.5,173.5C 223.5,175.5 223.5,177.5 223.5,179.5C 266.172,179.167 308.839,179.5 351.5,180.5C 353.844,181.337 355.844,182.671 357.5,184.5C 356.311,185.429 354.978,185.762 353.5,185.5C 310.162,185.833 266.828,185.5 223.5,184.5C 222.478,183.646 221.645,182.646 221,181.5C 220.021,177.577 220.521,173.91 222.5,170.5C 289.83,169.5 357.163,169.167 424.5,169.5C 424.33,170.822 424.663,171.989 425.5,173C 423.744,173.202 422.078,173.702 420.5,174.5C 424.289,175.202 427.955,175.535 431.5,175.5 Z"/></g>
<g><path style="opacity:1" fill="#382d23" d="M 215.5,157.5 C 213.359,159.103 211.859,161.103 211,163.5C 209.497,163.165 208.164,163.165 207,163.5C 202.255,167.743 197.088,171.409 191.5,174.5C 185.668,177.422 179.668,179.755 173.5,181.5C 187.495,173.508 201.495,165.508 215.5,157.5 Z"/></g>
<g><path style="opacity:1" fill="#c79d54" d="M 523.5,169.5 C 526.572,169.183 529.572,169.516 532.5,170.5C 534.5,174.5 536.5,174.5 538.5,170.5C 540.045,169.548 541.712,169.215 543.5,169.5C 541.517,175.134 537.517,176.967 531.5,175C 528.593,173.391 525.927,171.558 523.5,169.5 Z"/></g>
<g><path style="opacity:1" fill="#282826" d="M 440.5,169.5 C 441.609,169.557 442.609,169.89 443.5,170.5C 443.5,171.5 443.5,172.5 443.5,173.5C 447.257,173.286 447.924,174.286 445.5,176.5C 446.5,177.5 447.5,178.5 448.5,179.5C 449.167,178.167 449.833,176.833 450.5,175.5C 451.141,177.296 452.141,178.796 453.5,180C 452.5,180.333 451.5,180.667 450.5,181C 459.695,182.411 468.029,185.745 475.5,191C 476.793,191.49 478.127,191.657 479.5,191.5C 487.782,195.803 495.782,200.47 503.5,205.5C 503.833,207.5 504.167,209.5 504.5,211.5C 506.833,211.5 509.167,211.5 511.5,211.5C 511.484,286.606 511.484,361.606 511.5,436.5C 510.609,437.11 509.609,437.443 508.5,437.5C 503.394,438.36 498.394,439.694 493.5,441.5C 490.497,440.334 487.83,438.667 485.5,436.5C 483.604,435.534 481.604,435.201 479.5,435.5C 479.5,437.5 479.5,439.5 479.5,441.5C 485.441,442.385 486.775,445.385 483.5,450.5C 477.105,453.65 470.772,456.65 464.5,459.5C 464.5,460.833 464.5,462.167 464.5,463.5C 461.86,463.553 459.36,464.22 457,465.5C 456.167,465.167 455.333,464.833 454.5,464.5C 455.694,462.377 456.36,460.043 456.5,457.5C 456.043,454.085 455.377,450.752 454.5,447.5C 452.833,447.5 451.167,447.5 449.5,447.5C 448.5,447.167 447.833,446.5 447.5,445.5C 448.239,445.631 448.906,445.464 449.5,445C 446.979,442.78 444.812,440.28 443,437.5C 441.89,435.963 440.39,435.297 438.5,435.5C 438.328,433.508 438.995,431.842 440.5,430.5C 438.032,429.187 435.865,427.521 434,425.5C 432.765,424.385 431.598,424.385 430.5,425.5C 428.874,422.029 426.208,420.029 422.5,419.5C 422.759,415.76 422.426,412.094 421.5,408.5C 417.833,407.833 414.167,407.167 410.5,406.5C 408.671,404.844 407.337,402.844 406.5,400.5C 409.044,399.063 409.044,397.563 406.5,396C 407.711,394.887 407.711,393.72 406.5,392.5C 402.555,391.509 398.555,391.176 394.5,391.5C 394.5,387.5 392.5,385.5 388.5,385.5C 388.896,382.956 388.229,380.789 386.5,379C 388.473,364.744 389.14,350.244 388.5,335.5C 390.288,335.785 391.955,335.452 393.5,334.5C 390.191,333.285 386.858,332.285 383.5,331.5C 383.5,330.167 383.5,328.833 383.5,327.5C 395.167,327.5 406.833,327.5 418.5,327.5C 417.408,347.483 417.241,367.483 418,387.5C 419.401,389.146 419.568,390.813 418.5,392.5C 417.914,392.291 417.414,391.957 417,391.5C 416.316,392.784 416.483,393.951 417.5,395C 415.893,396.049 415.227,397.549 415.5,399.5C 417.308,399.509 418.975,399.009 420.5,398C 419.289,397.107 419.289,396.274 420.5,395.5C 421.541,397.991 422.374,397.991 423,395.5C 424.049,397.107 425.549,397.773 427.5,397.5C 432.74,397.906 437.74,397.24 442.5,395.5C 442.229,393.62 442.896,392.287 444.5,391.5C 445.166,388.972 445.832,386.306 446.5,383.5C 447.833,358.833 447.833,334.167 446.5,309.5C 445.817,309.137 445.15,308.804 444.5,308.5C 445.943,305.683 445.276,303.35 442.5,301.5C 439.383,300.016 436.05,299.016 432.5,298.5C 416.18,297.501 399.847,297.167 383.5,297.5C 383.5,291.5 383.5,285.5 383.5,279.5C 412.502,279.667 441.502,279.5 470.5,279C 469.5,278.667 468.5,278.333 467.5,278C 469.577,277.808 471.577,277.308 473.5,276.5C 474.363,275.274 474.363,273.94 473.5,272.5C 477.095,267.808 477.429,262.808 474.5,257.5C 473.065,252.588 469.731,250.588 464.5,251.5C 438.853,249.674 412.853,248.84 386.5,249C 388.076,246.817 389.742,244.651 391.5,242.5C 390.675,241.614 389.675,241.281 388.5,241.5C 388.5,224.833 388.5,208.167 388.5,191.5C 403.629,192.16 418.629,191.327 433.5,189C 433.167,188.667 432.833,188.333 432.5,188C 434.061,187.682 435.228,186.849 436,185.5C 436.498,182.183 436.665,178.85 436.5,175.5C 437.873,175.657 439.207,175.49 440.5,175C 435.731,172.205 435.731,170.372 440.5,169.5 Z"/></g>
<g><path style="opacity:1" fill="#403521" d="M 433.5,165.5 C 436.326,165.998 438.66,167.331 440.5,169.5C 435.731,170.372 435.731,172.205 440.5,175C 439.207,175.49 437.873,175.657 436.5,175.5C 436.665,178.85 436.498,182.183 436,185.5C 435.228,186.849 434.061,187.682 432.5,188C 432.833,188.333 433.167,188.667 433.5,189C 418.629,191.327 403.629,192.16 388.5,191.5C 386.833,191.5 385.167,191.5 383.5,191.5C 383.5,211.5 383.5,231.5 383.5,251.5C 383.5,251.833 383.5,252.167 383.5,252.5C 383.167,252.5 382.833,252.5 382.5,252.5C 382.5,232.167 382.5,211.833 382.5,191.5C 382.328,190.508 382.662,189.842 383.5,189.5C 397.837,189.667 412.171,189.5 426.5,189C 428.973,188.78 430.64,187.614 431.5,185.5C 432.712,184.77 433.712,183.77 434.5,182.5C 436.336,176.219 434.669,171.219 429.5,167.5C 429.343,166.127 429.51,164.793 430,163.5C 430.71,164.973 431.876,165.64 433.5,165.5 Z"/></g>
<g><path style="opacity:0.363" fill="#f2f2f2" d="M 31.5,180.5 C 33.7652,181.94 33.9319,183.607 32,185.5C 31.5065,183.866 31.3398,182.199 31.5,180.5 Z"/></g>
<g><path style="opacity:1" fill="#312b1e" d="M 443.5,170.5 C 455.535,177.515 467.535,184.515 479.5,191.5C 478.127,191.657 476.793,191.49 475.5,191C 468.029,185.745 459.695,182.411 450.5,181C 451.5,180.667 452.5,180.333 453.5,180C 452.141,178.796 451.141,177.296 450.5,175.5C 449.833,176.833 449.167,178.167 448.5,179.5C 447.5,178.5 446.5,177.5 445.5,176.5C 447.924,174.286 447.257,173.286 443.5,173.5C 443.5,172.5 443.5,171.5 443.5,170.5 Z"/></g>
<g><path style="opacity:1" fill="#e4d0ad" d="M 230.5,187.5 C 271.167,187.5 311.833,187.5 352.5,187.5C 356.357,186.962 359.691,187.962 362.5,190.5C 361.197,198.67 360.53,207.003 360.5,215.5C 360.514,223.879 360.848,232.212 361.5,240.5C 360.738,244.111 360.238,247.778 360,251.5C 359.617,252.056 359.117,252.389 358.5,252.5C 358.5,231.5 358.5,210.5 358.5,189.5C 315.833,188.833 273.167,188.167 230.5,187.5 Z"/></g>
<g><path style="opacity:1" fill="#ceba9a" d="M 223.5,188.5 C 223.5,188.167 223.5,187.833 223.5,187.5C 225.833,187.5 228.167,187.5 230.5,187.5C 273.167,188.167 315.833,188.833 358.5,189.5C 313.458,189.823 268.458,189.49 223.5,188.5 Z"/></g>
<g><path style="opacity:1" fill="#d5c1a0" d="M 427.5,185.5 C 428.833,185.5 430.167,185.5 431.5,185.5C 430.64,187.614 428.973,188.78 426.5,189C 412.171,189.5 397.837,189.667 383.5,189.5C 398.167,188.167 412.833,186.833 427.5,185.5 Z"/></g>
<g><path style="opacity:0.004" fill="#edeeed" d="M 31.5,190.5 C 32.8333,191.167 32.8333,191.167 31.5,190.5 Z"/></g>
<g><path style="opacity:1" fill="#372a16" d="M 223.5,188.5 C 268.458,189.49 313.458,189.823 358.5,189.5C 358.5,210.5 358.5,231.5 358.5,252.5C 292.167,252.5 225.833,252.5 159.5,252.5C 225.331,251.501 291.331,251.168 357.5,251.5C 358.155,231.139 357.488,211.139 355.5,191.5C 311.5,191.5 267.5,191.5 223.5,191.5C 223.5,190.5 223.5,189.5 223.5,188.5 Z"/></g>
<g><path style="opacity:1" fill="#efd09b" d="M 427.5,185.5 C 412.833,186.833 398.167,188.167 383.5,189.5C 382.662,189.842 382.328,190.508 382.5,191.5C 381.168,200.642 380.502,210.142 380.5,220C 380.583,232.021 380.917,243.854 381.5,255.5C 408.833,255.5 436.167,255.5 463.5,255.5C 465.833,255.5 468.167,255.5 470.5,255.5C 472.085,260.678 472.752,266.012 472.5,271.5C 456.424,272.773 440.258,273.439 424,273.5C 408.1,273.454 392.266,272.788 376.5,271.5C 375.5,271.833 374.5,272.167 373.5,272.5C 374.752,274.001 375.752,275.668 376.5,277.5C 377.99,284.114 379.156,290.781 380,297.5C 380.833,299.5 381.667,301.5 382.5,303.5C 383.298,303.043 383.631,302.376 383.5,301.5C 402.206,301.323 420.873,301.99 439.5,303.5C 441.19,303.856 442.19,304.856 442.5,306.5C 442.386,334.196 442.553,361.863 443,389.5C 441.169,392.67 438.502,394.67 435,395.5C 431.409,394.283 427.909,392.95 424.5,391.5C 423.502,368.797 423.169,346.131 423.5,323.5C 422.692,323.192 422.025,322.692 421.5,322C 408.838,321.5 396.171,321.333 383.5,321.5C 383.5,322.5 383.5,323.5 383.5,324.5C 382.596,325.209 382.263,326.209 382.5,327.5C 380.265,328.286 379.265,329.952 379.5,332.5C 380.458,349.479 380.791,366.479 380.5,383.5C 381.833,383.5 383.167,383.5 384.5,383.5C 400.833,399.167 416.833,415.167 432.5,431.5C 432.781,433.963 433.781,436.13 435.5,438C 435.167,438.333 434.833,438.667 434.5,439C 435.793,439.49 437.127,439.657 438.5,439.5C 438.5,440.833 438.5,442.167 438.5,443.5C 439.5,443.5 440.5,443.5 441.5,443.5C 441.5,444.833 441.5,446.167 441.5,447.5C 443.5,447.5 445.5,447.5 447.5,447.5C 447.5,448.833 447.5,450.167 447.5,451.5C 448.5,451.5 449.5,451.5 450.5,451.5C 450.905,456.01 450.905,460.676 450.5,465.5C 448.257,466.312 445.924,466.979 443.5,467.5C 439.268,466.71 435.268,465.377 431.5,463.5C 420.5,452.833 409.5,442.167 398.5,431.5C 393.833,426.167 388.833,421.167 383.5,416.5C 383.5,415.833 383.167,415.5 382.5,415.5C 379.037,411.536 375.37,407.702 371.5,404C 369.386,403.558 368.052,404.391 367.5,406.5C 361.441,411.557 356.107,417.224 351.5,423.5C 339.219,434.113 327.552,445.446 316.5,457.5C 314.167,459.5 311.833,461.5 309.5,463.5C 303.5,466.167 297.5,466.167 291.5,463.5C 288.195,454.11 291.361,447.777 301,444.5C 302.519,442.861 302.686,441.194 301.5,439.5C 304.167,436.5 306.833,433.5 309.5,430.5C 312.813,427.522 316.147,424.522 319.5,421.5C 323.388,422.011 325.721,420.345 326.5,416.5C 329.321,414.511 331.988,412.344 334.5,410C 337.58,409.234 340.58,408.234 343.5,407C 342.565,404.619 342.232,402.119 342.5,399.5C 346.144,399.292 348.311,397.292 349,393.5C 349.333,393.833 349.667,394.167 350,394.5C 351.009,392.975 351.509,391.308 351.5,389.5C 353.527,389.662 355.527,389.495 357.5,389C 356.97,386.864 357.803,385.03 360,383.5C 360.5,363.503 360.667,343.503 360.5,323.5C 343.833,323.5 327.167,323.5 310.5,323.5C 310.307,327.013 310.974,330.346 312.5,333.5C 311.847,350.519 311.18,367.519 310.5,384.5C 312.986,386.578 313.986,389.245 313.5,392.5C 313.5,392.833 313.5,393.167 313.5,393.5C 312.89,394.391 312.557,395.391 312.5,396.5C 308.861,398.709 304.861,399.709 300.5,399.5C 300.5,398.5 300.5,397.5 300.5,396.5C 296.22,396.221 293.887,393.887 293.5,389.5C 293.394,364.894 293.561,340.227 294,315.5C 294.311,311.222 295.477,307.222 297.5,303.5C 315.783,301.669 334.117,301.169 352.5,302C 352.167,302.333 351.833,302.667 351.5,303C 355.463,304.236 358.297,303.07 360,299.5C 360.5,291.507 360.666,283.507 360.5,275.5C 327.483,274.84 294.816,275.507 262.5,277.5C 261.71,278.609 261.21,279.942 261,281.5C 260.667,316.833 260.333,352.167 260,387.5C 259.21,397.04 257.543,406.373 255,415.5C 254.333,416.833 253.667,416.833 253,415.5C 250.988,420.701 249.488,426.034 248.5,431.5C 248.509,433.308 248.009,434.975 247,436.5C 244.012,439.802 241.512,443.469 239.5,447.5C 234.146,455.211 227.146,460.545 218.5,463.5C 212.5,463.5 206.5,463.5 200.5,463.5C 198.312,458.677 197.979,453.677 199.5,448.5C 203.278,446.055 207.278,444.055 211.5,442.5C 214.492,439.401 217.159,436.068 219.5,432.5C 220.689,431.571 222.022,431.238 223.5,431.5C 223.238,430.022 223.571,428.689 224.5,427.5C 226.949,426.545 228.949,425.045 230.5,423C 229.978,422.439 229.645,421.772 229.5,421C 234.081,413.748 237.248,405.914 239,397.5C 239.831,357.331 239.665,317.331 238.5,277.5C 238.167,277.5 237.833,277.5 237.5,277.5C 210.825,277.833 184.158,277.5 157.5,276.5C 156.15,275.05 154.484,274.383 152.5,274.5C 148.5,268.167 148.5,261.833 152.5,255.5C 153.791,255.737 154.791,255.404 155.5,254.5C 157.565,254.517 159.565,254.85 161.5,255.5C 227.508,256.163 293.175,255.497 358.5,253.5C 358.5,253.167 358.5,252.833 358.5,252.5C 359.117,252.389 359.617,252.056 360,251.5C 360.238,247.778 360.738,244.111 361.5,240.5C 360.848,232.212 360.514,223.879 360.5,215.5C 360.53,207.003 361.197,198.67 362.5,190.5C 359.691,187.962 356.357,186.962 352.5,187.5C 352.833,186.833 353.167,186.167 353.5,185.5C 354.978,185.762 356.311,185.429 357.5,184.5C 355.844,182.671 353.844,181.337 351.5,180.5C 308.839,179.5 266.172,179.167 223.5,179.5C 223.5,177.5 223.5,175.5 223.5,173.5C 287.503,173.167 351.503,173.5 415.5,174.5C 372.854,176.165 372.854,177.165 415.5,177.5C 415.5,178.833 415.5,180.167 415.5,181.5C 404.833,181.5 394.167,181.5 383.5,181.5C 383.5,182.833 383.5,184.167 383.5,185.5C 398.167,185.5 412.833,185.5 427.5,185.5 Z"/></g>
<g><path style="opacity:1" fill="#282920" d="M 388.5,191.5 C 388.5,208.167 388.5,224.833 388.5,241.5C 389.675,241.281 390.675,241.614 391.5,242.5C 389.742,244.651 388.076,246.817 386.5,249C 412.853,248.84 438.853,249.674 464.5,251.5C 437.5,251.5 410.5,251.5 383.5,251.5C 383.5,231.5 383.5,211.5 383.5,191.5C 385.167,191.5 386.833,191.5 388.5,191.5 Z"/></g>
<g><path style="opacity:1" fill="#383121" d="M 159.5,189.5 C 157.896,195.591 153.896,198.425 147.5,198C 147.833,198.333 148.167,198.667 148.5,199C 145.61,200.51 142.776,202.01 140,203.5C 139.329,202.748 138.496,202.414 137.5,202.5C 144.756,198.177 152.09,193.843 159.5,189.5 Z"/></g>
<g><path style="opacity:0.139" fill="#808080" d="M 36.5,202.5 C 37.2506,201.427 38.2506,201.26 39.5,202C 38.552,202.483 37.552,202.649 36.5,202.5 Z"/></g>
<g><path style="opacity:1" fill="#ead0ae" d="M 517.5,207.5 C 518.167,245.999 518.5,284.665 518.5,323.5C 518.5,362.506 517.833,401.172 516.5,439.5C 517.265,436.904 517.599,434.237 517.5,431.5C 517.5,356.833 517.5,282.167 517.5,207.5 Z"/></g>
<g><path style="opacity:1" fill="#ebd4ac" d="M 119.5,207.5 C 119.173,284.874 119.506,362.208 120.5,439.5C 119.167,401.172 118.5,362.506 118.5,323.5C 118.5,284.665 118.833,245.999 119.5,207.5 Z"/></g>
<g><path style="opacity:1" fill="#eed1a1" d="M 127.5,207.5 C 126.1,208.1 125.1,209.1 124.5,210.5C 123.501,285.665 123.167,360.998 123.5,436.5C 123.5,437.5 123.5,438.5 123.5,439.5C 122.5,439.5 121.5,439.5 120.5,439.5C 119.506,362.208 119.173,284.874 119.5,207.5C 121.367,207.045 123.2,206.378 125,205.5C 126.376,205.684 127.209,206.351 127.5,207.5 Z"/></g>
<g><path style="opacity:1" fill="#56462b" d="M 124.5,210.5 C 123.846,286.312 124.513,361.979 126.5,437.5C 125.609,436.89 124.609,436.557 123.5,436.5C 123.167,360.998 123.501,285.665 124.5,210.5 Z"/></g>
<g><path style="opacity:1" fill="#2f2619" d="M 127.5,207.5 C 128.167,207.5 128.833,207.5 129.5,207.5C 128.269,208.718 127.102,210.051 126,211.5C 125.167,285.502 125.333,359.502 126.5,433.5C 127.258,432.189 128.258,431.689 129.5,432C 128.359,432.741 128.359,433.575 129.5,434.5C 132.896,437.566 136.562,440.233 140.5,442.5C 142.278,443.726 143.278,445.393 143.5,447.5C 137.833,444.167 132.167,440.833 126.5,437.5C 124.513,361.979 123.846,286.312 124.5,210.5C 125.1,209.1 126.1,208.1 127.5,207.5 Z"/></g>
<g><path style="opacity:1" fill="#31271e" d="M 503.5,205.5 C 505.167,206.167 506.833,206.833 508.5,207.5C 509.71,207.932 510.71,208.599 511.5,209.5C 512.497,285.096 512.83,360.762 512.5,436.5C 512.167,436.5 511.833,436.5 511.5,436.5C 511.484,361.606 511.484,286.606 511.5,211.5C 509.167,211.5 506.833,211.5 504.5,211.5C 504.167,209.5 503.833,207.5 503.5,205.5 Z"/></g>
<g><path style="opacity:1" fill="#897962" d="M 511.5,209.5 C 513.308,210.918 513.975,212.918 513.5,215.5C 513.833,289.335 513.499,363.002 512.5,436.5C 512.83,360.762 512.497,285.096 511.5,209.5 Z"/></g>
<g><path style="opacity:1" fill="#e9d5a6" d="M 513.5,215.5 C 514.499,287.331 514.833,359.331 514.5,431.5C 515.5,431.5 516.5,431.5 517.5,431.5C 517.599,434.237 517.265,436.904 516.5,439.5C 514.664,441.588 512.331,442.921 509.5,443.5C 508.448,443.649 507.448,443.483 506.5,443C 507.337,441.989 507.67,440.822 507.5,439.5C 509.989,439.759 511.656,438.759 512.5,436.5C 513.499,363.002 513.833,289.335 513.5,215.5 Z"/></g>
<g><path style="opacity:1" fill="#edd299" d="M 505.5,199.5 C 509.881,201.684 513.881,204.35 517.5,207.5C 517.5,282.167 517.5,356.833 517.5,431.5C 516.5,431.5 515.5,431.5 514.5,431.5C 514.833,359.331 514.499,287.331 513.5,215.5C 513.975,212.918 513.308,210.918 511.5,209.5C 510.71,208.599 509.71,207.932 508.5,207.5C 507.766,206.292 507.433,204.959 507.5,203.5C 505.712,203.785 504.045,203.452 502.5,202.5C 503.993,201.859 504.993,200.859 505.5,199.5 Z"/></g>
<g><path style="opacity:1" fill="#2a281c" d="M 355.5,191.5 C 357.488,211.139 358.155,231.139 357.5,251.5C 291.331,251.168 225.331,251.501 159.5,252.5C 158.167,253.167 156.833,253.833 155.5,254.5C 154.791,255.404 153.791,255.737 152.5,255.5C 152.5,254.167 152.5,252.833 152.5,251.5C 220.394,249.854 288.394,248.854 356.5,248.5C 355.625,246.227 353.958,245.227 351.5,245.5C 351.5,243.5 351.5,241.5 351.5,239.5C 352.833,239.5 354.167,239.5 355.5,239.5C 355.5,223.5 355.5,207.5 355.5,191.5 Z"/></g>
<g><path style="opacity:1" fill="#36270f" d="M 383.5,252.5 C 383.5,252.167 383.5,251.833 383.5,251.5C 410.5,251.5 437.5,251.5 464.5,251.5C 469.731,250.588 473.065,252.588 474.5,257.5C 473.167,256.833 471.833,256.167 470.5,255.5C 469.411,253.883 467.744,253.05 465.5,253C 438.169,252.5 410.835,252.333 383.5,252.5 Z"/></g>
<g><path style="opacity:1" fill="#ae9e84" d="M 159.5,252.5 C 225.833,252.5 292.167,252.5 358.5,252.5C 358.5,252.833 358.5,253.167 358.5,253.5C 292.492,252.837 226.825,253.503 161.5,255.5C 159.565,254.85 157.565,254.517 155.5,254.5C 156.833,253.833 158.167,253.167 159.5,252.5 Z"/></g>
<g><path style="opacity:1" fill="#b0a186" d="M 382.5,252.5 C 382.833,252.5 383.167,252.5 383.5,252.5C 410.835,252.333 438.169,252.5 465.5,253C 467.744,253.05 469.411,253.883 470.5,255.5C 468.167,255.5 465.833,255.5 463.5,255.5C 436.682,253.836 409.682,252.836 382.5,252.5 Z"/></g>
<g><path style="opacity:1" fill="#ecd1a8" d="M 358.5,253.5 C 293.175,255.497 227.508,256.163 161.5,255.5C 226.825,253.503 292.492,252.837 358.5,253.5 Z"/></g>
<g><path style="opacity:1" fill="#ecd0a9" d="M 382.5,191.5 C 382.5,211.833 382.5,232.167 382.5,252.5C 409.682,252.836 436.682,253.836 463.5,255.5C 436.167,255.5 408.833,255.5 381.5,255.5C 380.917,243.854 380.583,232.021 380.5,220C 380.502,210.142 381.168,200.642 382.5,191.5 Z"/></g>
<g><path style="opacity:1" fill="#ebd0a2" d="M 470.5,255.5 C 471.833,256.167 473.167,256.833 474.5,257.5C 477.429,262.808 477.095,267.808 473.5,272.5C 471.508,274.564 469.175,275.897 466.5,276.5C 438.5,276.5 410.5,276.5 382.5,276.5C 382.5,284.5 382.5,292.5 382.5,300.5C 382.5,301.167 382.833,301.5 383.5,301.5C 383.631,302.376 383.298,303.043 382.5,303.5C 381.667,301.5 380.833,299.5 380,297.5C 379.156,290.781 377.99,284.114 376.5,277.5C 375.752,275.668 374.752,274.001 373.5,272.5C 374.5,272.167 375.5,271.833 376.5,271.5C 392.266,272.788 408.1,273.454 424,273.5C 440.258,273.439 456.424,272.773 472.5,271.5C 472.752,266.012 472.085,260.678 470.5,255.5 Z"/></g>
<g><path style="opacity:1" fill="#342b1a" d="M 262.5,277.5 C 294.5,277.5 326.5,277.5 358.5,277.5C 358.5,285.167 358.5,292.833 358.5,300.5C 340.164,300.333 321.83,300.5 303.5,301C 301.026,301.037 299.026,301.87 297.5,303.5C 297.167,303.5 296.833,303.5 296.5,303.5C 296.134,299.567 297.8,296.9 301.5,295.5C 310.733,296.78 320.066,297.447 329.5,297.5C 338.167,297.167 346.833,296.833 355.5,296.5C 356.902,293.348 356.568,290.348 354.5,287.5C 355.992,285.028 356.658,282.361 356.5,279.5C 328.167,279.5 299.833,279.5 271.5,279.5C 269.5,279.5 267.5,279.5 265.5,279.5C 264.667,316.664 264.167,353.998 264,391.5C 264.053,394.675 263.22,397.342 261.5,399.5C 261.342,396.098 261.676,392.764 262.5,389.5C 262.5,352.167 262.5,314.833 262.5,277.5 Z"/></g>
<g><path style="opacity:1" fill="#2e2818" d="M 473.5,272.5 C 474.363,273.94 474.363,275.274 473.5,276.5C 471.577,277.308 469.577,277.808 467.5,278C 468.5,278.333 469.5,278.667 470.5,279C 441.502,279.5 412.502,279.667 383.5,279.5C 410.985,277.836 438.652,276.836 466.5,276.5C 469.175,275.897 471.508,274.564 473.5,272.5 Z"/></g>
<g><path style="opacity:1" fill="#2a2923" d="M 234.5,399.5 C 234.5,400.833 234.5,402.167 234.5,403.5C 231.47,414.538 225.803,423.872 217.5,431.5C 217.543,428.912 218.543,426.746 220.5,425C 219.66,423.334 220.16,423.167 222,424.5C 222.568,421.542 223.735,418.875 225.5,416.5C 223.466,414.401 223.132,412.068 224.5,409.5C 225.275,411.475 226.609,412.309 228.5,412C 227.551,407.914 226.884,403.747 226.5,399.5C 225.5,399.5 224.5,399.5 223.5,399.5C 223.26,395.031 223.927,390.698 225.5,386.5C 223.543,353.57 222.876,320.57 223.5,287.5C 225.5,287.5 227.5,287.5 229.5,287.5C 229.174,319.877 229.507,352.21 230.5,384.5C 228.756,389.436 228.423,394.436 229.5,399.5C 231.245,402.092 232.911,402.092 234.5,399.5 Z"/></g>
<g><path style="opacity:1" fill="#312716" d="M 152.5,274.5 C 154.484,274.383 156.15,275.05 157.5,276.5C 184.158,277.5 210.825,277.833 237.5,277.5C 237.792,317.848 237.459,358.182 236.5,398.5C 235.976,400.306 235.309,401.972 234.5,403.5C 234.5,402.167 234.5,400.833 234.5,399.5C 235.426,359.51 235.759,319.51 235.5,279.5C 208.825,279.833 182.158,279.5 155.5,278.5C 154.09,277.431 153.09,276.097 152.5,274.5 Z"/></g>
<g><path style="opacity:1" fill="#8d7e66" d="M 237.5,277.5 C 237.833,277.5 238.167,277.5 238.5,277.5C 238.667,315.835 238.5,354.168 238,392.5C 237.809,394.708 237.309,396.708 236.5,398.5C 237.459,358.182 237.792,317.848 237.5,277.5 Z"/></g>
<g><path style="opacity:1" fill="#dcc39e" d="M 262.5,277.5 C 262.5,314.833 262.5,352.167 262.5,389.5C 261.235,390.514 260.569,392.014 260.5,394C 260.001,397.49 259.668,400.99 259.5,404.5C 258.293,409.199 256.96,413.866 255.5,418.5C 254.262,420.214 253.595,422.214 253.5,424.5C 252.055,426.571 251.055,428.904 250.5,431.5C 250.167,431.5 249.833,431.5 249.5,431.5C 249.167,431.5 248.833,431.5 248.5,431.5C 249.488,426.034 250.988,420.701 253,415.5C 253.667,416.833 254.333,416.833 255,415.5C 257.543,406.373 259.21,397.04 260,387.5C 260.333,352.167 260.667,316.833 261,281.5C 261.21,279.942 261.71,278.609 262.5,277.5 Z"/></g>
<g><path style="opacity:1" fill="#282825" d="M 265.5,279.5 C 265.798,319.517 265.465,359.517 264.5,399.5C 265.5,399.5 266.5,399.5 267.5,399.5C 268.734,359.63 270.067,319.63 271.5,279.5C 299.833,279.5 328.167,279.5 356.5,279.5C 356.658,282.361 355.992,285.028 354.5,287.5C 356.568,290.348 356.902,293.348 355.5,296.5C 346.833,296.833 338.167,297.167 329.5,297.5C 320.066,297.447 310.733,296.78 301.5,295.5C 297.8,296.9 296.134,299.567 296.5,303.5C 294.748,305.246 293.415,307.246 292.5,309.5C 291.167,323.484 290.501,337.817 290.5,352.5C 290.501,367.183 291.167,381.516 292.5,395.5C 295.044,397.019 297.711,398.352 300.5,399.5C 304.861,399.709 308.861,398.709 312.5,396.5C 313.583,396.461 314.583,396.127 315.5,395.5C 316.5,372.843 316.833,350.176 316.5,327.5C 329.833,327.5 343.167,327.5 356.5,327.5C 356.5,346.167 356.5,364.833 356.5,383.5C 354.833,383.5 353.167,383.5 351.5,383.5C 351.5,384.833 351.5,386.167 351.5,387.5C 350.325,387.281 349.325,387.614 348.5,388.5C 346.068,391.186 343.401,393.686 340.5,396C 341.252,396.671 341.586,397.504 341.5,398.5C 340.883,398.389 340.383,398.056 340,397.5C 338.951,399.107 337.451,399.773 335.5,399.5C 335.5,400.833 335.5,402.167 335.5,403.5C 334.448,403.351 333.448,403.517 332.5,404C 332.833,404.333 333.167,404.667 333.5,405C 329.613,407.633 326.279,410.8 323.5,414.5C 322.311,415.429 320.978,415.762 319.5,415.5C 319.773,417.451 319.107,418.951 317.5,420C 317.833,420.333 318.167,420.667 318.5,421C 314.74,422.729 311.406,425.062 308.5,428C 309.252,428.671 309.586,429.504 309.5,430.5C 306.833,433.5 304.167,436.5 301.5,439.5C 296.432,443.565 292.098,448.232 288.5,453.5C 287.523,456.287 287.19,459.287 287.5,462.5C 287.5,464.167 287.5,465.833 287.5,467.5C 289.58,468.044 291.58,468.878 293.5,470C 293.167,470.333 292.833,470.667 292.5,471C 299.32,471.587 305.987,470.753 312.5,468.5C 313.523,464.982 315.19,461.815 317.5,459C 316.944,458.617 316.611,458.117 316.5,457.5C 320.468,457.652 324.135,456.652 327.5,454.5C 328.374,452.253 328.708,449.92 328.5,447.5C 331.339,446.679 333.672,445.013 335.5,442.5C 342.842,440.173 347.175,435.173 348.5,427.5C 349.5,427.5 350.5,427.5 351.5,427.5C 351.5,426.167 351.5,424.833 351.5,423.5C 356.204,423.473 359.204,421.139 360.5,416.5C 362.658,414.407 364.992,412.741 367.5,411.5C 367.5,409.833 367.5,408.167 367.5,406.5C 368.15,406.196 368.817,405.863 369.5,405.5C 373.093,410.093 377.426,413.426 382.5,415.5C 383.167,415.5 383.5,415.833 383.5,416.5C 383.5,418.167 383.5,419.833 383.5,421.5C 384.978,421.238 386.311,421.571 387.5,422.5C 390.305,425.14 392.971,427.973 395.5,431C 396.448,431.483 397.448,431.649 398.5,431.5C 409.5,442.167 420.5,452.833 431.5,463.5C 431.5,463.833 431.5,464.167 431.5,464.5C 431.5,466.167 431.5,467.833 431.5,469.5C 436.494,469.329 438.328,471.662 437,476.5C 432.035,478.191 427.535,480.525 423.5,483.5C 423.5,484.833 423.5,486.167 423.5,487.5C 422.833,487.5 422.167,487.5 421.5,487.5C 417.139,488.011 413.139,489.511 409.5,492C 410.252,492.671 410.586,493.504 410.5,494.5C 381.562,511.976 352.228,528.976 322.5,545.5C 319.833,545.5 317.167,545.5 314.5,545.5C 304.929,540.891 295.929,535.558 287.5,529.5C 287.5,528.167 287.5,526.833 287.5,525.5C 282.626,524.709 277.959,523.209 273.5,521C 273.833,520.667 274.167,520.333 274.5,520C 269.089,515.139 262.756,512.306 255.5,511.5C 254.843,508.441 252.843,506.941 249.5,507C 249.833,506.667 250.167,506.333 250.5,506C 246.185,502.357 241.185,500.19 235.5,499.5C 233.847,499.34 232.514,498.674 231.5,497.5C 231.348,495.758 231.348,493.924 231.5,492C 230.531,490.242 229.364,489.742 228,490.5C 225.794,489.648 223.627,488.648 221.5,487.5C 218.004,488.533 215.004,487.533 212.5,484.5C 212.833,483.833 213.167,483.167 213.5,482.5C 211.088,479.648 208.588,479.315 206,481.5C 204.403,480.115 202.57,479.449 200.5,479.5C 200.5,478.167 200.5,476.833 200.5,475.5C 198.801,475.66 197.134,475.494 195.5,475C 196.056,474.617 196.389,474.117 196.5,473.5C 200.285,473.369 203.952,472.702 207.5,471.5C 207.5,470.167 207.5,468.833 207.5,467.5C 211.846,467.666 216.179,467.499 220.5,467C 220.167,466.667 219.833,466.333 219.5,466C 223.088,464.617 226.754,463.451 230.5,462.5C 231.077,460.45 232.41,459.45 234.5,459.5C 234.238,458.022 234.571,456.689 235.5,455.5C 238.44,453.62 239.774,450.953 239.5,447.5C 240.833,447.5 242.167,447.5 243.5,447.5C 243.258,443.083 245.258,440.417 249.5,439.5C 249.5,436.833 249.5,434.167 249.5,431.5C 249.833,431.5 250.167,431.5 250.5,431.5C 252.616,427.517 255.449,423.85 259,420.5C 260.229,413.544 261.062,406.544 261.5,399.5C 263.22,397.342 264.053,394.675 264,391.5C 264.167,353.998 264.667,316.664 265.5,279.5 Z"/></g>
<g><path style="opacity:1" fill="#27272a" d="M 265.5,279.5 C 267.5,279.5 269.5,279.5 271.5,279.5C 270.067,319.63 268.734,359.63 267.5,399.5C 266.5,399.5 265.5,399.5 264.5,399.5C 265.465,359.517 265.798,319.517 265.5,279.5 Z"/></g>
<g><path style="opacity:1" fill="#2d291a" d="M 383.5,297.5 C 399.847,297.167 416.18,297.501 432.5,298.5C 436.05,299.016 439.383,300.016 442.5,301.5C 445.276,303.35 445.943,305.683 444.5,308.5C 443.833,307.833 443.167,307.167 442.5,306.5C 442.19,304.856 441.19,303.856 439.5,303.5C 436.087,301.935 432.42,300.935 428.5,300.5C 413.305,300.161 398.305,299.161 383.5,297.5 Z"/></g>
<g><path style="opacity:1" fill="#7e6b4b" d="M 466.5,276.5 C 438.652,276.836 410.985,277.836 383.5,279.5C 383.5,285.5 383.5,291.5 383.5,297.5C 398.305,299.161 413.305,300.161 428.5,300.5C 413.167,300.5 397.833,300.5 382.5,300.5C 382.5,292.5 382.5,284.5 382.5,276.5C 410.5,276.5 438.5,276.5 466.5,276.5 Z"/></g>
<g><path style="opacity:1" fill="#e2ceac" d="M 382.5,300.5 C 397.833,300.5 413.167,300.5 428.5,300.5C 432.42,300.935 436.087,301.935 439.5,303.5C 420.873,301.99 402.206,301.323 383.5,301.5C 382.833,301.5 382.5,301.167 382.5,300.5 Z"/></g>
<g><path style="opacity:1" fill="#d2bf9b" d="M 297.5,303.5 C 299.026,301.87 301.026,301.037 303.5,301C 321.83,300.5 340.164,300.333 358.5,300.5C 358.5,292.833 358.5,285.167 358.5,277.5C 326.5,277.5 294.5,277.5 262.5,277.5C 294.816,275.507 327.483,274.84 360.5,275.5C 360.666,283.507 360.5,291.507 360,299.5C 358.297,303.07 355.463,304.236 351.5,303C 351.833,302.667 352.167,302.333 352.5,302C 334.117,301.169 315.783,301.669 297.5,303.5 Z"/></g>
<g><path style="opacity:1" fill="#e8ca97" d="M 558.5,345.5 C 556.674,333.681 555.174,321.681 554,309.5C 553.333,312.167 552.667,312.167 552,309.5C 551.891,312.668 550.725,315.335 548.5,317.5C 546.857,312.928 545.523,308.261 544.5,303.5C 543.833,303.167 543.167,302.833 542.5,302.5C 540.845,319.123 540.178,335.789 540.5,352.5C 540.167,352.5 539.833,352.5 539.5,352.5C 539.333,335.497 539.5,318.497 540,301.5C 543.261,294.114 548.428,292.281 555.5,296C 556.701,296.903 557.535,298.069 558,299.5C 558.5,314.83 558.667,330.163 558.5,345.5 Z"/></g>
<g><path style="opacity:1" fill="#d4a653" d="M 84.5,297.5 C 84.5903,307.513 84.257,317.513 83.5,327.5C 83.4783,330.59 82.8117,333.257 81.5,335.5C 81.6641,327.459 81.1641,319.459 80,311.5C 78.0643,313.808 77.231,316.475 77.5,319.5C 76.1667,319.5 74.8333,319.5 73.5,319.5C 73.8174,316.428 73.4841,313.428 72.5,310.5C 72.1667,311 71.8333,311.5 71.5,312C 71.5458,317.889 70.5458,323.723 68.5,329.5C 67.501,317.518 67.1677,305.518 67.5,293.5C 70.1403,293.447 72.6403,292.78 75,291.5C 78.8089,292.645 81.9756,294.645 84.5,297.5 Z"/></g>
<g><path style="opacity:1" fill="#3d311c" d="M 292.5,309.5 C 291.175,338.154 291.175,366.821 292.5,395.5C 291.167,381.516 290.501,367.183 290.5,352.5C 290.501,337.817 291.167,323.484 292.5,309.5 Z"/></g>
<g><path style="opacity:1" fill="#dfc8a2" d="M 296.5,303.5 C 296.833,303.5 297.167,303.5 297.5,303.5C 295.477,307.222 294.311,311.222 294,315.5C 293.561,340.227 293.394,364.894 293.5,389.5C 293.887,393.887 296.22,396.221 300.5,396.5C 300.5,397.5 300.5,398.5 300.5,399.5C 297.711,398.352 295.044,397.019 292.5,395.5C 291.175,366.821 291.175,338.154 292.5,309.5C 293.415,307.246 294.748,305.246 296.5,303.5 Z"/></g>
<g><path style="opacity:1" fill="#3d3827" d="M 444.5,308.5 C 445.15,308.804 445.817,309.137 446.5,309.5C 447.833,334.167 447.833,358.833 446.5,383.5C 445.832,386.306 445.166,388.972 444.5,391.5C 444.5,363.833 444.5,336.167 444.5,308.5 Z"/></g>
<g><path style="opacity:1" fill="#2d2819" d="M 357.5,383.5 C 357.167,383.5 356.833,383.5 356.5,383.5C 356.5,364.833 356.5,346.167 356.5,327.5C 343.167,327.5 329.833,327.5 316.5,327.5C 316.833,350.176 316.5,372.843 315.5,395.5C 314.583,396.127 313.583,396.461 312.5,396.5C 312.557,395.391 312.89,394.391 313.5,393.5C 315.49,371.191 316.156,348.525 315.5,325.5C 329.5,325.5 343.5,325.5 357.5,325.5C 357.5,344.833 357.5,364.167 357.5,383.5 Z"/></g>
<g><path style="opacity:1" fill="#e9d0a9" d="M 382.5,327.5 C 382.17,345.674 382.503,363.674 383.5,381.5C 383.833,382.167 384.167,382.833 384.5,383.5C 383.167,383.5 381.833,383.5 380.5,383.5C 380.791,366.479 380.458,349.479 379.5,332.5C 379.265,329.952 380.265,328.286 382.5,327.5 Z"/></g>
<g><path style="opacity:1" fill="#2a291f" d="M 421.5,389.5 C 423.5,392.167 425.5,394.833 427.5,397.5C 425.549,397.773 424.049,397.107 423,395.5C 422.374,397.991 421.541,397.991 420.5,395.5C 419.289,396.274 419.289,397.107 420.5,398C 418.975,399.009 417.308,399.509 415.5,399.5C 415.227,397.549 415.893,396.049 417.5,395C 416.483,393.951 416.316,392.784 417,391.5C 417.414,391.957 417.914,392.291 418.5,392.5C 419.568,390.813 419.401,389.146 418,387.5C 417.241,367.483 417.408,347.483 418.5,327.5C 406.833,327.5 395.167,327.5 383.5,327.5C 395.12,325.521 407.12,324.854 419.5,325.5C 420.044,346.994 420.711,368.328 421.5,389.5 Z"/></g>
<g><path style="opacity:1" fill="#e5c284" d="M 558.5,345.5 C 558.5,352.833 558.5,360.167 558.5,367.5C 557.833,367.5 557.167,367.5 556.5,367.5C 556.082,356.149 555.416,344.815 554.5,333.5C 553.5,333.5 552.5,333.5 551.5,333.5C 552.176,337.514 550.843,340.514 547.5,342.5C 545.627,342.518 545.294,342.018 546.5,341C 544.808,339.599 544.141,337.766 544.5,335.5C 543.5,335.5 542.5,335.5 541.5,335.5C 541.5,342.167 541.5,348.833 541.5,355.5C 540.596,354.791 540.263,353.791 540.5,352.5C 540.178,335.789 540.845,319.123 542.5,302.5C 543.167,302.833 543.833,303.167 544.5,303.5C 545.523,308.261 546.857,312.928 548.5,317.5C 550.725,315.335 551.891,312.668 552,309.5C 552.667,312.167 553.333,312.167 554,309.5C 555.174,321.681 556.674,333.681 558.5,345.5 Z"/></g>
<g><path style="opacity:1" fill="#4c3f27" d="M 357.5,383.5 C 357.5,364.167 357.5,344.833 357.5,325.5C 343.5,325.5 329.5,325.5 315.5,325.5C 316.156,348.525 315.49,371.191 313.5,393.5C 313.5,393.167 313.5,392.833 313.5,392.5C 314.497,370.006 314.831,347.339 314.5,324.5C 329.167,324.5 343.833,324.5 358.5,324.5C 358.83,344.34 358.497,364.007 357.5,383.5 Z"/></g>
<g><path style="opacity:1" fill="#e3cea8" d="M 351.5,389.5 C 353.167,387.5 354.833,385.5 356.5,383.5C 356.833,383.5 357.167,383.5 357.5,383.5C 358.497,364.007 358.83,344.34 358.5,324.5C 343.833,324.5 329.167,324.5 314.5,324.5C 314.831,347.339 314.497,370.006 313.5,392.5C 313.986,389.245 312.986,386.578 310.5,384.5C 311.18,367.519 311.847,350.519 312.5,333.5C 310.974,330.346 310.307,327.013 310.5,323.5C 327.167,323.5 343.833,323.5 360.5,323.5C 360.667,343.503 360.5,363.503 360,383.5C 357.803,385.03 356.97,386.864 357.5,389C 355.527,389.495 353.527,389.662 351.5,389.5 Z"/></g>
<g><path style="opacity:1" fill="#44371e" d="M 383.5,324.5 C 396.167,324.5 408.833,324.5 421.5,324.5C 421.5,346.167 421.5,367.833 421.5,389.5C 420.711,368.328 420.044,346.994 419.5,325.5C 407.12,324.854 395.12,325.521 383.5,327.5C 383.5,328.833 383.5,330.167 383.5,331.5C 383.5,348.167 383.5,364.833 383.5,381.5C 382.503,363.674 382.17,345.674 382.5,327.5C 382.263,326.209 382.596,325.209 383.5,324.5 Z"/></g>
<g><path style="opacity:1" fill="#dfcba5" d="M 442.5,306.5 C 443.167,307.167 443.833,307.833 444.5,308.5C 444.5,336.167 444.5,363.833 444.5,391.5C 442.896,392.287 442.229,393.62 442.5,395.5C 437.74,397.24 432.74,397.906 427.5,397.5C 425.5,394.833 423.5,392.167 421.5,389.5C 421.5,367.833 421.5,346.167 421.5,324.5C 408.833,324.5 396.167,324.5 383.5,324.5C 383.5,323.5 383.5,322.5 383.5,321.5C 396.171,321.333 408.838,321.5 421.5,322C 422.025,322.692 422.692,323.192 423.5,323.5C 423.169,346.131 423.502,368.797 424.5,391.5C 427.909,392.95 431.409,394.283 435,395.5C 438.502,394.67 441.169,392.67 443,389.5C 442.553,361.863 442.386,334.196 442.5,306.5 Z"/></g>
<g><path style="opacity:1" fill="#dab069" d="M 84.5,297.5 C 81.9756,294.645 78.8089,292.645 75,291.5C 72.6403,292.78 70.1403,293.447 67.5,293.5C 67.1677,305.518 67.501,317.518 68.5,329.5C 70.5458,323.723 71.5458,317.889 71.5,312C 71.8333,311.5 72.1667,311 72.5,310.5C 73.4841,313.428 73.8174,316.428 73.5,319.5C 74.8333,319.5 76.1667,319.5 77.5,319.5C 77.231,316.475 78.0643,313.808 80,311.5C 81.1641,319.459 81.6641,327.459 81.5,335.5C 78.8333,335.5 76.1667,335.5 73.5,335.5C 72.5,335.5 71.5,335.5 70.5,335.5C 70.8168,339.702 70.4834,343.702 69.5,347.5C 69.5432,343.107 69.0432,342.774 68,346.5C 67.7679,345.263 67.2679,344.263 66.5,343.5C 66.5,327.167 66.5,310.833 66.5,294.5C 72.2064,286.547 78.0398,286.547 84,294.5C 84.4828,295.448 84.6495,296.448 84.5,297.5 Z"/></g>
<g><path style="opacity:1" fill="#e2c07e" d="M 84.5,297.5 C 85.4968,315.326 85.8301,333.326 85.5,351.5C 84.8333,356.833 84.1667,362.167 83.5,367.5C 81.8546,360.546 80.8546,353.213 80.5,345.5C 77.0462,353.08 76.7129,360.746 79.5,368.5C 77.8333,368.833 76.1667,369.167 74.5,369.5C 72.3603,369.444 70.6936,368.777 69.5,367.5C 70.8333,367.5 72.1667,367.5 73.5,367.5C 73.5,356.833 73.5,346.167 73.5,335.5C 76.1667,335.5 78.8333,335.5 81.5,335.5C 82.8117,333.257 83.4783,330.59 83.5,327.5C 84.257,317.513 84.5903,307.513 84.5,297.5 Z"/></g>
<g><path style="opacity:1" fill="#e8bf89" d="M 73.5,335.5 C 73.5,346.167 73.5,356.833 73.5,367.5C 72.1667,367.5 70.8333,367.5 69.5,367.5C 69.5,360.833 69.5,354.167 69.5,347.5C 70.4834,343.702 70.8168,339.702 70.5,335.5C 71.5,335.5 72.5,335.5 73.5,335.5 Z"/></g>
<g><path style="opacity:1" fill="#ddb56e" d="M 556.5,367.5 C 556.5,370.833 556.5,374.167 556.5,377.5C 555.594,373.322 554.76,368.988 554,364.5C 553.333,363.833 552.667,363.167 552,362.5C 550.936,366.192 549.77,369.858 548.5,373.5C 545.784,369.014 543.45,364.347 541.5,359.5C 541.5,358.167 541.5,356.833 541.5,355.5C 541.5,348.833 541.5,342.167 541.5,335.5C 542.5,335.5 543.5,335.5 544.5,335.5C 544.141,337.766 544.808,339.599 546.5,341C 545.294,342.018 545.627,342.518 547.5,342.5C 550.843,340.514 552.176,337.514 551.5,333.5C 552.5,333.5 553.5,333.5 554.5,333.5C 555.416,344.815 556.082,356.149 556.5,367.5 Z"/></g>
<g><path style="opacity:1" fill="#edc991" d="M 66.5,343.5 C 67.2679,344.263 67.7679,345.263 68,346.5C 69.0432,342.774 69.5432,343.107 69.5,347.5C 69.5,354.167 69.5,360.833 69.5,367.5C 70.6936,368.777 72.3603,369.444 74.5,369.5C 76.1667,369.167 77.8333,368.833 79.5,368.5C 76.7129,360.746 77.0462,353.08 80.5,345.5C 80.8546,353.213 81.8546,360.546 83.5,367.5C 82.9492,370.807 82.6159,374.14 82.5,377.5C 81.5,377.5 80.5,377.5 79.5,377.5C 79.762,378.978 79.4287,380.311 78.5,381.5C 75.4439,379.711 72.1106,379.044 68.5,379.5C 67.1707,367.546 66.5041,355.546 66.5,343.5 Z"/></g>
<g><path style="opacity:1" fill="#e0c79b" d="M 66.5,294.5 C 66.5,310.833 66.5,327.167 66.5,343.5C 66.5041,355.546 67.1707,367.546 68.5,379.5C 72.1106,379.044 75.4439,379.711 78.5,381.5C 79.4287,380.311 79.762,378.978 79.5,377.5C 80.5,377.5 81.5,377.5 82.5,377.5C 82.6159,374.14 82.9492,370.807 83.5,367.5C 84.1667,362.167 84.8333,356.833 85.5,351.5C 85.6664,359.84 85.4997,368.173 85,376.5C 82.2701,383.053 77.4368,385.22 70.5,383C 69,381.5 67.5,380 66,378.5C 65.1697,350.33 65.3363,322.33 66.5,294.5 Z"/></g>
<g><path style="opacity:1" fill="#d4a553" d="M 541.5,359.5 C 543.45,364.347 545.784,369.014 548.5,373.5C 549.77,369.858 550.936,366.192 552,362.5C 552.667,363.167 553.333,363.833 554,364.5C 554.76,368.988 555.594,373.322 556.5,377.5C 556.416,387.608 556.25,397.608 556,407.5C 554.13,408.743 551.964,409.41 549.5,409.5C 546.957,409.36 544.623,408.694 542.5,407.5C 541.501,391.514 541.167,375.514 541.5,359.5 Z"/></g>
<g><path style="opacity:1" fill="#cda668" d="M 539.5,352.5 C 539.833,352.5 540.167,352.5 540.5,352.5C 540.263,353.791 540.596,354.791 541.5,355.5C 541.5,356.833 541.5,358.167 541.5,359.5C 541.167,375.514 541.501,391.514 542.5,407.5C 544.623,408.694 546.957,409.36 549.5,409.5C 551.964,409.41 554.13,408.743 556,407.5C 556.25,397.608 556.416,387.608 556.5,377.5C 556.5,374.167 556.5,370.833 556.5,367.5C 557.167,367.5 557.833,367.5 558.5,367.5C 558.667,380.504 558.5,393.504 558,406.5C 554.084,412.769 548.917,413.936 542.5,410C 540.996,408.509 540.163,406.676 540,404.5C 539.5,387.17 539.333,369.837 539.5,352.5 Z"/></g>
<g><path style="opacity:1" fill="#8b7e5f" d="M 262.5,389.5 C 261.676,392.764 261.342,396.098 261.5,399.5C 260.833,401.167 260.167,402.833 259.5,404.5C 259.668,400.99 260.001,397.49 260.5,394C 260.569,392.014 261.235,390.514 262.5,389.5 Z"/></g>
<g><path style="opacity:1" fill="#342c1a" d="M 356.5,383.5 C 354.833,385.5 353.167,387.5 351.5,389.5C 348.167,392.5 344.833,395.5 341.5,398.5C 341.586,397.504 341.252,396.671 340.5,396C 343.401,393.686 346.068,391.186 348.5,388.5C 349.325,387.614 350.325,387.281 351.5,387.5C 351.5,386.167 351.5,384.833 351.5,383.5C 353.167,383.5 354.833,383.5 356.5,383.5 Z"/></g>
<g><path style="opacity:1" fill="#e1cba5" d="M 238.5,277.5 C 239.665,317.331 239.831,357.331 239,397.5C 237.248,405.914 234.081,413.748 229.5,421C 229.645,421.772 229.978,422.439 230.5,423C 228.949,425.045 226.949,426.545 224.5,427.5C 223.571,428.689 223.238,430.022 223.5,431.5C 222.022,431.238 220.689,431.571 219.5,432.5C 217.159,436.068 214.492,439.401 211.5,442.5C 207.278,444.055 203.278,446.055 199.5,448.5C 197.979,453.677 198.312,458.677 200.5,463.5C 198.583,462.884 197.416,461.55 197,459.5C 196.306,455.446 196.473,451.446 197.5,447.5C 205.305,443.597 211.971,438.263 217.5,431.5C 225.803,423.872 231.47,414.538 234.5,403.5C 235.309,401.972 235.976,400.306 236.5,398.5C 237.309,396.708 237.809,394.708 238,392.5C 238.5,354.168 238.667,315.835 238.5,277.5 Z"/></g>
<g><path style="opacity:1" fill="#2d2b21" d="M 383.5,331.5 C 386.858,332.285 390.191,333.285 393.5,334.5C 391.955,335.452 390.288,335.785 388.5,335.5C 389.14,350.244 388.473,364.744 386.5,379C 388.229,380.789 388.896,382.956 388.5,385.5C 392.5,385.5 394.5,387.5 394.5,391.5C 398.555,391.176 402.555,391.509 406.5,392.5C 407.711,393.72 407.711,394.887 406.5,396C 409.044,397.563 409.044,399.063 406.5,400.5C 407.337,402.844 408.671,404.844 410.5,406.5C 414.167,407.167 417.833,407.833 421.5,408.5C 422.426,412.094 422.759,415.76 422.5,419.5C 426.208,420.029 428.874,422.029 430.5,425.5C 431.598,424.385 432.765,424.385 434,425.5C 435.865,427.521 438.032,429.187 440.5,430.5C 438.995,431.842 438.328,433.508 438.5,435.5C 440.39,435.297 441.89,435.963 443,437.5C 444.812,440.28 446.979,442.78 449.5,445C 448.906,445.464 448.239,445.631 447.5,445.5C 442.454,440.784 437.454,436.117 432.5,431.5C 416.833,415.167 400.833,399.167 384.5,383.5C 384.167,382.833 383.833,382.167 383.5,381.5C 383.5,364.833 383.5,348.167 383.5,331.5 Z"/></g>
<g><path style="opacity:1" fill="#dfc79e" d="M 351.5,389.5 C 351.509,391.308 351.009,392.975 350,394.5C 349.667,394.167 349.333,393.833 349,393.5C 348.311,397.292 346.144,399.292 342.5,399.5C 342.232,402.119 342.565,404.619 343.5,407C 340.58,408.234 337.58,409.234 334.5,410C 331.988,412.344 329.321,414.511 326.5,416.5C 325.721,420.345 323.388,422.011 319.5,421.5C 326.833,413.833 334.167,406.167 341.5,398.5C 344.833,395.5 348.167,392.5 351.5,389.5 Z"/></g>
<g><path style="opacity:1" fill="#372f1b" d="M 341.5,398.5 C 334.167,406.167 326.833,413.833 319.5,421.5C 316.147,424.522 312.813,427.522 309.5,430.5C 309.586,429.504 309.252,428.671 308.5,428C 311.406,425.062 314.74,422.729 318.5,421C 318.167,420.667 317.833,420.333 317.5,420C 319.107,418.951 319.773,417.451 319.5,415.5C 320.978,415.762 322.311,415.429 323.5,414.5C 326.279,410.8 329.613,407.633 333.5,405C 333.167,404.667 332.833,404.333 332.5,404C 333.448,403.517 334.448,403.351 335.5,403.5C 335.5,402.167 335.5,400.833 335.5,399.5C 337.451,399.773 338.951,399.107 340,397.5C 340.383,398.056 340.883,398.389 341.5,398.5 Z"/></g>
<g><path style="opacity:1" fill="#3c311e" d="M 382.5,415.5 C 377.426,413.426 373.093,410.093 369.5,405.5C 368.817,405.863 368.15,406.196 367.5,406.5C 368.052,404.391 369.386,403.558 371.5,404C 375.37,407.702 379.037,411.536 382.5,415.5 Z"/></g>
<g><path style="opacity:1" fill="#2f2c1b" d="M 261.5,399.5 C 261.062,406.544 260.229,413.544 259,420.5C 255.449,423.85 252.616,427.517 250.5,431.5C 251.055,428.904 252.055,426.571 253.5,424.5C 255.074,422.898 255.741,420.898 255.5,418.5C 256.96,413.866 258.293,409.199 259.5,404.5C 260.167,402.833 260.833,401.167 261.5,399.5 Z"/></g>
<g><path style="opacity:1" fill="#37301d" d="M 367.5,406.5 C 367.5,408.167 367.5,409.833 367.5,411.5C 364.992,412.741 362.658,414.407 360.5,416.5C 359.204,421.139 356.204,423.473 351.5,423.5C 356.107,417.224 361.441,411.557 367.5,406.5 Z"/></g>
<g><path style="opacity:1" fill="#7c6f53" d="M 255.5,418.5 C 255.741,420.898 255.074,422.898 253.5,424.5C 253.595,422.214 254.262,420.214 255.5,418.5 Z"/></g>
<g><path style="opacity:1" fill="#39301d" d="M 383.5,416.5 C 388.833,421.167 393.833,426.167 398.5,431.5C 397.448,431.649 396.448,431.483 395.5,431C 392.971,427.973 390.305,425.14 387.5,422.5C 386.311,421.571 384.978,421.238 383.5,421.5C 383.5,419.833 383.5,418.167 383.5,416.5 Z"/></g>
<g><path style="opacity:1" fill="#302c1e" d="M 351.5,423.5 C 351.5,424.833 351.5,426.167 351.5,427.5C 350.5,427.5 349.5,427.5 348.5,427.5C 347.175,435.173 342.842,440.173 335.5,442.5C 333.672,445.013 331.339,446.679 328.5,447.5C 328.708,449.92 328.374,452.253 327.5,454.5C 324.135,456.652 320.468,457.652 316.5,457.5C 327.552,445.446 339.219,434.113 351.5,423.5 Z"/></g>
<g><path style="opacity:1" fill="#2d2b21" d="M 508.5,437.5 C 493.818,446.173 479.152,454.84 464.5,463.5C 464.5,462.167 464.5,460.833 464.5,459.5C 470.772,456.65 477.105,453.65 483.5,450.5C 486.775,445.385 485.441,442.385 479.5,441.5C 479.5,439.5 479.5,437.5 479.5,435.5C 481.604,435.201 483.604,435.534 485.5,436.5C 487.83,438.667 490.497,440.334 493.5,441.5C 498.394,439.694 503.394,438.36 508.5,437.5 Z"/></g>
<g><path style="opacity:1" fill="#e1caa1" d="M 432.5,431.5 C 437.454,436.117 442.454,440.784 447.5,445.5C 447.833,446.5 448.5,447.167 449.5,447.5C 454.435,452.35 455.435,458.016 452.5,464.5C 452.043,465.298 451.376,465.631 450.5,465.5C 450.905,460.676 450.905,456.01 450.5,451.5C 449.5,451.5 448.5,451.5 447.5,451.5C 447.5,450.167 447.5,448.833 447.5,447.5C 445.5,447.5 443.5,447.5 441.5,447.5C 441.5,446.167 441.5,444.833 441.5,443.5C 440.5,443.5 439.5,443.5 438.5,443.5C 438.5,442.167 438.5,440.833 438.5,439.5C 437.127,439.657 435.793,439.49 434.5,439C 434.833,438.667 435.167,438.333 435.5,438C 433.781,436.13 432.781,433.963 432.5,431.5 Z"/></g>
<g><path style="opacity:1" fill="#3e3125" d="M 248.5,431.5 C 248.833,431.5 249.167,431.5 249.5,431.5C 249.5,434.167 249.5,436.833 249.5,439.5C 245.258,440.417 243.258,443.083 243.5,447.5C 242.167,447.5 240.833,447.5 239.5,447.5C 241.512,443.469 244.012,439.802 247,436.5C 248.009,434.975 248.509,433.308 248.5,431.5 Z"/></g>
<g><path style="opacity:1" fill="#e9ce9f" d="M 508.5,486.5 C 517.458,487.445 520.625,492.111 518,500.5C 510.327,507.768 504.827,506.268 501.5,496C 501.796,494.112 502.296,492.278 503,490.5C 505.167,489.512 507,488.179 508.5,486.5 Z"/></g>
<g><path style="opacity:1" fill="#c09b59" d="M 174.5,511.5 C 171.195,510.85 167.861,510.184 164.5,509.5C 160.557,509.063 158.224,510.729 157.5,514.5C 158.478,516.777 159.145,519.11 159.5,521.5C 164.017,521.4 167.017,523.4 168.5,527.5C 164.185,525.34 160.185,522.673 156.5,519.5C 154.864,509.969 158.864,505.802 168.5,507C 170.684,508.363 172.684,509.863 174.5,511.5 Z"/></g>
<g><path style="opacity:1" fill="#d1a048" d="M 174.5,511.5 C 174.833,511.5 175.167,511.5 175.5,511.5C 175.5,512.833 175.5,514.167 175.5,515.5C 181.112,516.982 186.446,518.982 191.5,521.5C 191.5,523.5 191.5,525.5 191.5,527.5C 189.801,527.34 188.134,527.506 186.5,528C 186.833,528.333 187.167,528.667 187.5,529C 183.832,535.017 181.165,534.517 179.5,527.5C 175.833,527.5 172.167,527.5 168.5,527.5C 167.017,523.4 164.017,521.4 159.5,521.5C 159.145,519.11 158.478,516.777 157.5,514.5C 158.224,510.729 160.557,509.063 164.5,509.5C 167.861,510.184 171.195,510.85 174.5,511.5 Z"/></g>
<g><path style="opacity:1" fill="#c79f64" d="M 175.5,511.5 C 181.007,514.656 186.341,517.989 191.5,521.5C 186.446,518.982 181.112,516.982 175.5,515.5C 175.5,514.167 175.5,512.833 175.5,511.5 Z"/></g>
<g><path style="opacity:1" fill="#e8c589" d="M 466.5,529.5 C 464.719,526.645 462.052,525.312 458.5,525.5C 458.986,523.193 458.986,521.027 458.5,519C 459.167,518.667 459.833,518.333 460.5,518C 459.207,517.51 457.873,517.343 456.5,517.5C 459.498,514.998 462.832,512.998 466.5,511.5C 469.434,510.712 472.434,510.046 475.5,509.5C 481.828,510.033 483.828,513.367 481.5,519.5C 479.132,521.223 476.466,521.89 473.5,521.5C 473.643,523.262 473.309,524.929 472.5,526.5C 470.447,527.527 468.447,528.527 466.5,529.5 Z"/></g>
<g><path style="opacity:1" fill="#ddc599" d="M 463.5,533.5 C 463.5,532.167 463.5,530.833 463.5,529.5C 464.5,529.5 465.5,529.5 466.5,529.5C 468.447,528.527 470.447,527.527 472.5,526.5C 473.309,524.929 473.643,523.262 473.5,521.5C 476.466,521.89 479.132,521.223 481.5,519.5C 483.828,513.367 481.828,510.033 475.5,509.5C 472.434,510.046 469.434,510.712 466.5,511.5C 472.078,505.482 477.912,505.148 484,510.5C 486.446,515.324 485.613,519.491 481.5,523C 475.604,526.778 469.604,530.278 463.5,533.5 Z"/></g>
<g><path style="opacity:1" fill="#d9b06e" d="M 456.5,517.5 C 457.873,517.343 459.207,517.51 460.5,518C 459.833,518.333 459.167,518.667 458.5,519C 458.986,521.027 458.986,523.193 458.5,525.5C 462.052,525.312 464.719,526.645 466.5,529.5C 465.5,529.5 464.5,529.5 463.5,529.5C 463.5,530.833 463.5,532.167 463.5,533.5C 458.383,536.622 453.049,539.289 447.5,541.5C 445.974,541.006 444.641,540.339 443.5,539.5C 447.426,539.768 451.093,538.935 454.5,537C 455.69,534.884 457.023,532.884 458.5,531C 457.095,529.731 455.429,529.231 453.5,529.5C 453.8,526.756 452.633,525.089 450,524.5C 447.411,524.851 444.911,525.518 442.5,526.5C 441.574,530.094 441.241,533.76 441.5,537.5C 437.605,533.064 437.939,528.731 442.5,524.5C 447.2,522.108 451.867,519.775 456.5,517.5 Z"/></g>
<g><path style="opacity:1" fill="#e5cca1" d="M 123.5,436.5 C 124.609,436.557 125.609,436.89 126.5,437.5C 132.167,440.833 137.833,444.167 143.5,447.5C 143.833,447.5 144.167,447.5 144.5,447.5C 154.6,453.941 164.934,459.941 175.5,465.5C 179.824,468.665 184.491,471.332 189.5,473.5C 202.07,480.459 214.403,487.959 226.5,496C 228.025,497.009 229.692,497.509 231.5,497.5C 232.514,498.674 233.847,499.34 235.5,499.5C 241.5,504.505 248.167,508.505 255.5,511.5C 261.605,515.059 267.605,518.893 273.5,523C 278.097,525.467 282.763,527.634 287.5,529.5C 295.929,535.558 304.929,540.891 314.5,545.5C 317.068,549.327 319.735,549.327 322.5,545.5C 352.228,528.976 381.562,511.976 410.5,494.5C 414.711,492.902 418.378,490.568 421.5,487.5C 422.167,487.5 422.833,487.5 423.5,487.5C 437.366,479.737 451.033,471.737 464.5,463.5C 479.152,454.84 493.818,446.173 508.5,437.5C 509.609,437.443 510.609,437.11 511.5,436.5C 511.833,436.5 512.167,436.5 512.5,436.5C 511.656,438.759 509.989,439.759 507.5,439.5C 507.67,440.822 507.337,441.989 506.5,443C 507.448,443.483 508.448,443.649 509.5,443.5C 445.927,480.873 382.093,517.873 318,554.5C 257.665,519.253 197.165,484.42 136.5,450C 130.93,446.725 125.597,443.225 120.5,439.5C 121.5,439.5 122.5,439.5 123.5,439.5C 123.5,438.5 123.5,437.5 123.5,436.5 Z"/></g>
<g><path style="opacity:1" fill="#363020" d="M 255.5,511.5 C 262.756,512.306 269.089,515.139 274.5,520C 274.167,520.333 273.833,520.667 273.5,521C 277.959,523.209 282.626,524.709 287.5,525.5C 287.5,526.833 287.5,528.167 287.5,529.5C 282.763,527.634 278.097,525.467 273.5,523C 267.605,518.893 261.605,515.059 255.5,511.5 Z"/></g>
<g><path style="opacity:1" fill="#393021" d="M 235.5,499.5 C 241.185,500.19 246.185,502.357 250.5,506C 250.167,506.333 249.833,506.667 249.5,507C 252.843,506.941 254.843,508.441 255.5,511.5C 248.167,508.505 241.5,504.505 235.5,499.5 Z"/></g>
<g><path style="opacity:1" fill="#342f24" d="M 189.5,473.5 C 191.833,473.5 194.167,473.5 196.5,473.5C 196.389,474.117 196.056,474.617 195.5,475C 197.134,475.494 198.801,475.66 200.5,475.5C 200.5,476.833 200.5,478.167 200.5,479.5C 202.57,479.449 204.403,480.115 206,481.5C 208.588,479.315 211.088,479.648 213.5,482.5C 213.167,483.167 212.833,483.833 212.5,484.5C 215.004,487.533 218.004,488.533 221.5,487.5C 223.627,488.648 225.794,489.648 228,490.5C 229.364,489.742 230.531,490.242 231.5,492C 231.348,493.924 231.348,495.758 231.5,497.5C 229.692,497.509 228.025,497.009 226.5,496C 214.403,487.959 202.07,480.459 189.5,473.5 Z"/></g>
<g><path style="opacity:1" fill="#372d1b" d="M 421.5,487.5 C 418.378,490.568 414.711,492.902 410.5,494.5C 410.586,493.504 410.252,492.671 409.5,492C 413.139,489.511 417.139,488.011 421.5,487.5 Z"/></g>
<g><path style="opacity:1" fill="#342d1f" d="M 449.5,447.5 C 451.167,447.5 452.833,447.5 454.5,447.5C 455.377,450.752 456.043,454.085 456.5,457.5C 456.36,460.043 455.694,462.377 454.5,464.5C 455.333,464.833 456.167,465.167 457,465.5C 459.36,464.22 461.86,463.553 464.5,463.5C 451.033,471.737 437.366,479.737 423.5,487.5C 423.5,486.167 423.5,484.833 423.5,483.5C 427.535,480.525 432.035,478.191 437,476.5C 438.328,471.662 436.494,469.329 431.5,469.5C 431.5,467.833 431.5,466.167 431.5,464.5C 435.824,469.182 441.158,470.682 447.5,469C 449.426,468.578 450.426,467.411 450.5,465.5C 451.376,465.631 452.043,465.298 452.5,464.5C 455.435,458.016 454.435,452.35 449.5,447.5 Z"/></g>
<g><path style="opacity:1" fill="#322a1b" d="M 316.5,457.5 C 316.611,458.117 316.944,458.617 317.5,459C 315.19,461.815 313.523,464.982 312.5,468.5C 305.987,470.753 299.32,471.587 292.5,471C 292.833,470.667 293.167,470.333 293.5,470C 291.58,468.878 289.58,468.044 287.5,467.5C 287.5,465.833 287.5,464.167 287.5,462.5C 288.167,463.167 288.833,463.833 289.5,464.5C 291.145,465.479 292.479,466.812 293.5,468.5C 300.243,470.989 305.576,469.322 309.5,463.5C 311.833,461.5 314.167,459.5 316.5,457.5 Z"/></g>
<g><path style="opacity:1" fill="#d3c3a5" d="M 431.5,464.5 C 431.5,464.167 431.5,463.833 431.5,463.5C 435.268,465.377 439.268,466.71 443.5,467.5C 445.924,466.979 448.257,466.312 450.5,465.5C 450.426,467.411 449.426,468.578 447.5,469C 441.158,470.682 435.824,469.182 431.5,464.5 Z"/></g>
<g><path style="opacity:1" fill="#dec8a0" d="M 301.5,439.5 C 302.686,441.194 302.519,442.861 301,444.5C 291.361,447.777 288.195,454.11 291.5,463.5C 297.5,466.167 303.5,466.167 309.5,463.5C 305.576,469.322 300.243,470.989 293.5,468.5C 292.479,466.812 291.145,465.479 289.5,464.5C 288.756,460.881 288.423,457.215 288.5,453.5C 292.098,448.232 296.432,443.565 301.5,439.5 Z"/></g>
<g><path style="opacity:1" fill="#322a1c" d="M 197.5,447.5 C 196.473,451.446 196.306,455.446 197,459.5C 197.416,461.55 198.583,462.884 200.5,463.5C 200.918,464.222 201.584,464.722 202.5,465C 204.667,465.167 206.833,465.333 209,465.5C 212.477,465.672 215.644,465.006 218.5,463.5C 227.146,460.545 234.146,455.211 239.5,447.5C 239.774,450.953 238.44,453.62 235.5,455.5C 234.571,456.689 234.238,458.022 234.5,459.5C 232.41,459.45 231.077,460.45 230.5,462.5C 226.754,463.451 223.088,464.617 219.5,466C 219.833,466.333 220.167,466.667 220.5,467C 216.179,467.499 211.846,467.666 207.5,467.5C 204.753,467.813 202.086,467.48 199.5,466.5C 198.625,464.227 196.958,463.227 194.5,463.5C 194.5,458.167 194.5,452.833 194.5,447.5C 195.5,447.5 196.5,447.5 197.5,447.5 Z"/></g>
<g><path style="opacity:1" fill="#e4ceae" d="M 200.5,463.5 C 206.5,463.5 212.5,463.5 218.5,463.5C 215.644,465.006 212.477,465.672 209,465.5C 206.833,465.333 204.667,465.167 202.5,465C 201.584,464.722 200.918,464.222 200.5,463.5 Z"/></g>
<g><path style="opacity:1" fill="#998867" d="M 288.5,453.5 C 288.423,457.215 288.756,460.881 289.5,464.5C 288.833,463.833 288.167,463.167 287.5,462.5C 287.19,459.287 287.523,456.287 288.5,453.5 Z"/></g>
<g><path style="opacity:1" fill="#322e21" d="M 144.5,447.5 C 149.249,449.704 154.249,451.037 159.5,451.5C 159.5,450.167 159.5,448.833 159.5,447.5C 161.288,447.215 162.955,447.548 164.5,448.5C 163.675,449.386 162.675,449.719 161.5,449.5C 161.5,450.833 161.5,452.167 161.5,453.5C 164.453,455.089 167.453,456.756 170.5,458.5C 171.995,461.071 173.661,463.404 175.5,465.5C 164.934,459.941 154.6,453.941 144.5,447.5 Z"/></g>
<g><path style="opacity:1" fill="#cca35e" d="M 191.5,521.5 C 194.796,526.909 193.796,531.409 188.5,535C 186.167,535.667 183.833,535.667 181.5,535C 176.998,532.636 172.665,530.136 168.5,527.5C 172.167,527.5 175.833,527.5 179.5,527.5C 181.165,534.517 183.832,535.017 187.5,529C 187.167,528.667 186.833,528.333 186.5,528C 188.134,527.506 189.801,527.34 191.5,527.5C 191.5,525.5 191.5,523.5 191.5,521.5 Z"/></g>
<g><path style="opacity:1" fill="#d5a656" d="M 443.5,539.5 C 442.167,539.5 441.5,538.833 441.5,537.5C 441.241,533.76 441.574,530.094 442.5,526.5C 444.911,525.518 447.411,524.851 450,524.5C 452.633,525.089 453.8,526.756 453.5,529.5C 455.429,529.231 457.095,529.731 458.5,531C 457.023,532.884 455.69,534.884 454.5,537C 451.093,538.935 447.426,539.768 443.5,539.5 Z"/></g>
<g><path style="opacity:1" fill="#554532" d="M 314.5,545.5 C 317.167,545.5 319.833,545.5 322.5,545.5C 319.735,549.327 317.068,549.327 314.5,545.5 Z"/></g>
<g><path style="opacity:1" fill="#d2a456" d="M 244.5,551.5 C 244.5,552.833 244.5,554.167 244.5,555.5C 242.833,555.5 241.167,555.5 239.5,555.5C 239.5,556.833 239.5,558.167 239.5,559.5C 236.104,559.633 235.771,560.633 238.5,562.5C 235.315,563.666 232.648,562.833 230.5,560C 228.866,559.506 227.199,559.34 225.5,559.5C 218.215,557.261 216.048,552.595 219,545.5C 221.646,542.754 224.812,541.587 228.5,542C 234.029,544.928 239.363,548.094 244.5,551.5 Z"/></g>
<g><path style="opacity:1" fill="#dcb36f" d="M 244.5,551.5 C 248.327,553.246 251.993,555.246 255.5,557.5C 255.346,561.025 256.679,563.859 259.5,566C 258.437,567.188 257.103,567.688 255.5,567.5C 255.5,568.833 255.5,570.167 255.5,571.5C 251.133,571.013 246.799,570.347 242.5,569.5C 236.332,566.92 230.665,563.586 225.5,559.5C 227.199,559.34 228.866,559.506 230.5,560C 232.648,562.833 235.315,563.666 238.5,562.5C 235.771,560.633 236.104,559.633 239.5,559.5C 239.5,558.167 239.5,556.833 239.5,555.5C 241.167,555.5 242.833,555.5 244.5,555.5C 244.5,554.167 244.5,552.833 244.5,551.5 Z"/></g>
<g><path style="opacity:1" fill="#e7c48a" d="M 255.5,557.5 C 262.833,561.833 270.167,566.167 277.5,570.5C 279.142,572.815 280.808,575.149 282.5,577.5C 280.016,579.536 279.016,582.202 279.5,585.5C 273.817,586.086 269.15,584.253 265.5,580C 263.527,579.505 261.527,579.338 259.5,579.5C 253.661,576.415 247.994,573.082 242.5,569.5C 246.799,570.347 251.133,571.013 255.5,571.5C 255.5,570.167 255.5,568.833 255.5,567.5C 257.103,567.688 258.437,567.188 259.5,566C 256.679,563.859 255.346,561.025 255.5,557.5 Z"/></g>
<g><path style="opacity:1" fill="#dfc89c" d="M 277.5,570.5 C 285.086,574.419 286.086,579.585 280.5,586C 278.726,586.97 276.893,587.804 275,588.5C 269.415,586.052 264.249,583.052 259.5,579.5C 261.527,579.338 263.527,579.505 265.5,580C 269.15,584.253 273.817,586.086 279.5,585.5C 279.016,582.202 280.016,579.536 282.5,577.5C 280.808,575.149 279.142,572.815 277.5,570.5 Z"/></g>
</svg>
